<svg width="24" height="22" viewBox="0 0 24 22" fill="none" xmlns="http://www.w3.org/2000/svg">
<path fill-rule="evenodd" clip-rule="evenodd" d="M23.9629 11.1922C23.9629 5.24382 18.8136 0.420654 12.4629 0.420654C6.11222 0.420654 0.962891 5.24382 0.962891 11.1922C0.962891 16.5684 5.16758 21.0247 10.666 21.8335V14.3068H7.74532V11.1922H10.666V8.81912C10.666 6.11997 12.3833 4.62782 15.0098 4.62782C16.2682 4.62782 17.5845 4.83844 17.5845 4.83844V7.4895H16.1337C14.7059 7.4895 14.2593 8.31949 14.2593 9.17256V11.1922H17.4484L16.9392 14.3068H14.2598V21.8344C19.7582 21.0261 23.9629 16.5698 23.9629 11.1922V11.1922Z" fill="#0152A8"/>
</svg>
