<svg width="23" height="22" viewBox="0 0 23 22" fill="none" xmlns="http://www.w3.org/2000/svg">
<path d="M16.4706 2.20293C17.6994 2.20646 18.8768 2.67775 19.7457 3.51386C20.6146 4.34998 21.1044 5.48298 21.1081 6.66543V15.5895C21.1044 16.7719 20.6146 17.9049 19.7457 18.741C18.8768 19.5772 17.6994 20.0484 16.4706 20.052H7.19672C5.96792 20.0484 4.7905 19.5772 3.9216 18.741C3.05271 17.9049 2.56294 16.7719 2.55927 15.5895V6.66543C2.56294 5.48298 3.05271 4.34998 3.9216 3.51386C4.7905 2.67775 5.96792 2.20646 7.19672 2.20293H16.4706V2.20293ZM16.4706 0.418213H7.19672C3.62597 0.418213 0.70459 3.22939 0.70459 6.66543V15.5895C0.70459 19.0255 3.62597 21.8367 7.19672 21.8367H16.4706C20.0414 21.8367 22.9627 19.0255 22.9627 15.5895V6.66543C22.9627 3.22939 20.0414 0.418213 16.4706 0.418213V0.418213Z" fill="#0152A8"/>
<path d="M17.8617 6.66584C17.5865 6.66584 17.3176 6.58732 17.0888 6.44023C16.86 6.29314 16.6817 6.08407 16.5764 5.83946C16.4711 5.59485 16.4436 5.3257 16.4973 5.06602C16.5509 4.80635 16.6834 4.56782 16.878 4.38061C17.0725 4.19339 17.3204 4.0659 17.5903 4.01425C17.8601 3.9626 18.1398 3.98911 18.394 4.09043C18.6482 4.19174 18.8655 4.36332 19.0184 4.58346C19.1712 4.8036 19.2528 5.06242 19.2528 5.32718C19.2532 5.50308 19.2175 5.67732 19.1477 5.83991C19.0779 6.00249 18.9755 6.15021 18.8462 6.2746C18.717 6.39898 18.5635 6.49757 18.3945 6.56471C18.2255 6.63185 18.0445 6.66621 17.8617 6.66584V6.66584ZM11.8336 7.55795C12.5673 7.55795 13.2846 7.76732 13.8947 8.15959C14.5048 8.55186 14.9803 9.1094 15.261 9.76171C15.5418 10.414 15.6153 11.1318 15.4722 11.8243C15.329 12.5168 14.9757 13.1529 14.4568 13.6522C13.938 14.1514 13.277 14.4914 12.5573 14.6292C11.8377 14.7669 11.0918 14.6962 10.4139 14.426C9.736 14.1558 9.15659 13.6983 8.74895 13.1112C8.34131 12.5241 8.12373 11.8339 8.12373 11.1279C8.12478 10.1814 8.51597 9.27394 9.21148 8.60467C9.90699 7.9354 10.85 7.55897 11.8336 7.55795V7.55795ZM11.8336 5.77324C10.733 5.77324 9.65718 6.08728 8.74209 6.67565C7.82701 7.26403 7.11379 8.10031 6.69262 9.07873C6.27145 10.0572 6.16126 11.1338 6.37597 12.1725C6.59068 13.2112 7.12065 14.1653 7.89886 14.9141C8.67708 15.663 9.66858 16.173 10.748 16.3796C11.8274 16.5862 12.9463 16.4802 13.963 16.0749C14.9798 15.6696 15.8489 14.9833 16.4603 14.1027C17.0718 13.2222 17.3981 12.1869 17.3981 11.1279C17.3981 9.70772 16.8119 8.34576 15.7683 7.34157C14.7248 6.33739 13.3094 5.77324 11.8336 5.77324V5.77324Z" fill="#0152A8"/>
</svg>
