<svg width="23" height="18" viewBox="0 0 23 18" fill="none" xmlns="http://www.w3.org/2000/svg">
<path d="M22.4339 2.579C21.6285 2.9287 20.7764 3.1591 19.9044 3.2629C20.8208 2.72667 21.5099 1.87479 21.8426 0.867009C20.9762 1.37327 20.0299 1.72849 19.0442 1.91745C18.6291 1.48276 18.13 1.13695 17.577 0.901046C17.024 0.66514 16.4288 0.544063 15.8276 0.545174C13.3933 0.545174 11.4233 2.48513 11.4233 4.87655C11.4216 5.20918 11.4597 5.54083 11.5369 5.8644C9.79138 5.78263 8.08212 5.33766 6.51852 4.55795C4.95491 3.77825 3.57139 2.68098 2.45647 1.33635C2.06533 1.99528 1.85847 2.74709 1.85752 3.51321C1.85752 5.01511 2.64166 6.34269 3.8257 7.12046C3.12419 7.10382 2.43705 6.91828 1.82263 6.57959V6.63323C1.82263 8.7341 3.34349 10.4819 5.35641 10.8797C4.97788 10.9805 4.58782 11.0316 4.19607 11.0317C3.9181 11.0321 3.64077 11.0052 3.3681 10.9512C3.92769 12.6721 5.55636 13.9237 7.48562 13.9595C5.91795 15.1668 3.99327 15.8193 2.01408 15.8145C1.66277 15.814 1.31178 15.7931 0.962891 15.7519C2.97633 17.0367 5.31679 17.7162 7.7057 17.7097C15.8182 17.7097 20.2502 11.1076 20.2502 5.38165C20.2502 5.19391 20.2452 5.00617 20.2363 4.82291C21.0965 4.21144 21.8407 3.45158 22.4339 2.579V2.579Z" fill="#0152A8"/>
</svg>
